<?xml version="1.0" encoding="UTF-8" standalone="no"?>
<!-- Created with Inkscape (http://www.inkscape.org/) -->

<svg
   width="210mm"
   height="297mm"
   viewBox="0 0 210 297"
   version="1.1"
   id="svg5"
   inkscape:version="1.1.2 (1:1.1+202202050942+0a00cf5339)"
   sodipodi:docname="MyLogo.svg"
   xmlns:inkscape="http://www.inkscape.org/namespaces/inkscape"
   xmlns:sodipodi="http://sodipodi.sourceforge.net/DTD/sodipodi-0.dtd"
   xmlns="http://www.w3.org/2000/svg"
   xmlns:svg="http://www.w3.org/2000/svg">
  <sodipodi:namedview
     id="namedview7"
     pagecolor="#ffffff"
     bordercolor="#666666"
     borderopacity="1.0"
     inkscape:pageshadow="2"
     inkscape:pageopacity="0.0"
     inkscape:pagecheckerboard="0"
     inkscape:document-units="mm"
     showgrid="false"
     inkscape:zoom="0.4187009"
     inkscape:cx="397.65857"
     inkscape:cy="560.06567"
     inkscape:window-width="1366"
     inkscape:window-height="704"
     inkscape:window-x="0"
     inkscape:window-y="0"
     inkscape:window-maximized="1"
     inkscape:current-layer="layer1" />
  <defs
     id="defs2">
    <rect
       x="357.34601"
       y="686.70366"
       width="132.15169"
       height="91.372655"
       id="rect25158" />
    <inkscape:perspective
       sodipodi:type="inkscape:persp3d"
       inkscape:vp_x="0 : 148.5 : 1"
       inkscape:vp_y="0 : 1000 : 0"
       inkscape:vp_z="210 : 148.5 : 1"
       inkscape:persp3d-origin="105 : 99 : 1"
       id="perspective91" />
  </defs>
  <g
     inkscape:label="Layer 1"
     inkscape:groupmode="layer"
     id="layer1">
    <path
       style="fill:#000000;fill-opacity:1;fill-rule:nonzero;stroke:none;stroke-width:0.264583"
       id="path262"
       d="m 46.304303,54.18787 c -3.340884,1.600367 -6.647347,3.31924 -9.637673,5.521005 -1.970193,1.480814 -3.487716,3.471767 -4.978493,5.414264 -1.63381,2.019506 -2.831525,4.341034 -3.761216,6.755098 -0.993171,2.527321 -1.588731,5.151114 -2.171717,7.793476 -0.517832,2.149666 -0.760731,4.345623 -0.858959,6.550218 -0.148143,2.415239 -0.01586,4.816613 0.319557,7.20943 0.276074,2.643011 1.050002,5.179706 1.837912,7.703219 0.791078,2.03129 1.747483,3.98839 2.706577,5.94344 1.256683,2.31356 2.729441,4.51403 4.248075,6.66386 1.525059,2.36936 3.00858,4.74895 5.097778,6.66211 2.647907,2.09431 5.831334,2.66324 9.087882,3.07498 3.953335,0.36506 7.923064,0.58538 11.872277,0.12139 5.204661,-0.80925 9.738278,-3.51949 14.034516,-6.44919 2.532374,-1.80529 4.775205,-3.93493 6.685594,-6.38255 1.867916,-2.60939 3.366239,-5.47418 4.202422,-8.57446 0.654053,-2.99789 0.683104,-6.083276 0.722466,-9.137877 -0.02204,-2.957962 0.07426,-5.921521 -0.09518,-8.875739 -0.07553,-3.07799 -1.40162,-5.845842 -2.665574,-8.583491 -1.272712,-2.75038 -2.963323,-5.271447 -4.569042,-7.832174 -1.357386,-2.20752 -3.07985,-4.147635 -4.843102,-6.033622 -1.980751,-2.213324 -4.250722,-4.113752 -6.556817,-5.971569 -1.684833,-1.268286 -3.244284,-2.69294 -5.081254,-3.743526 -1.880828,-0.747025 -3.897606,-1.128824 -5.86762,-1.589664 -2.008079,-0.473329 -4.066315,-0.627679 -6.121492,-0.70975 -1.356471,-0.03244 -2.752839,-0.120037 -4.045387,0.355774 -1.237192,0.733666 -2.474383,1.467334 -3.711575,2.201 0,0 3.684934,-1.465807 3.684934,-1.465807 v 0 c -1.026065,0.575037 -2.052132,1.150077 -3.078197,1.725117 1.221285,-0.642273 2.630133,-0.547274 3.97427,-0.526391 2.041993,0.06845 4.089508,0.191561 6.089268,0.641406 1.942778,0.443386 3.902798,0.878935 5.788142,1.510673 1.849384,1.000458 3.397887,2.418881 5.075616,3.67021 2.309987,1.828006 4.586859,3.690937 6.529281,5.921832 1.743856,1.871435 3.455125,3.787114 4.810736,5.967603 1.607963,2.539781 3.294899,5.042363 4.563153,7.776911 1.237347,2.704822 2.51683,5.428959 2.578959,8.466143 0.169791,2.945387 0.06662,5.898928 0.08943,8.848008 -0.03988,3.02651 -0.07318,6.084773 -0.765686,9.047373 -0.880427,3.05021 -2.36556,5.88482 -4.263265,8.43177 -1.944828,2.38802 -4.173413,4.50159 -6.707598,6.2648 -0.503647,0.33593 -1.8249,0.49016 -1.510943,1.00779 0.313929,0.51758 2.191809,-0.94143 1.589826,-0.87774 -0.663252,0.0702 -1.17961,0.6247 -1.787697,0.89868 -1.812756,0.81674 -3.718682,1.40607 -5.680665,1.73108 -3.924977,0.51837 -7.881474,0.29453 -11.817942,-0.0438 -3.183631,-0.38748 -6.285897,-0.9152 -8.905994,-2.91296 -2.095138,-1.86428 -3.551796,-4.2407 -5.061297,-6.58339 -1.504005,-2.13618 -2.96382,-4.31746 -4.191243,-6.62619 -0.955016,-1.93452 -1.897446,-3.87767 -2.682087,-5.889037 -0.793832,-2.499162 -1.573845,-5.008989 -1.823609,-7.635401 -0.308787,-2.377057 -0.417687,-4.76195 -0.263956,-7.157331 0.121079,-2.180874 0.356256,-4.353317 0.86672,-6.482049 0.571851,-2.628704 1.207942,-5.224864 2.195075,-7.735996 0.960568,-2.384954 2.182884,-4.664339 3.820282,-6.660009 1.502593,-1.912059 3.0054,-3.880115 5.003869,-5.305012 1.879362,-1.333064 1.46191,-0.972384 -1.069472,0.409278 -0.368949,0.201377 0.730517,-0.416232 1.101598,-0.613656 1.223967,-0.651179 0.949536,-0.468378 2.147363,-1.050935 0.253508,-0.123291 0.502513,-0.255635 0.753766,-0.383456 0,0 3.097409,-2.455166 3.097408,-2.455166 z" />
    <circle
       id="path268"
       style="fill:#000000;stroke:#000000;stroke-width:0.264583"
       cx="59.706085"
       cy="51.868858"
       r="0.084170446" />
    <circle
       id="path270"
       style="fill:#000000;stroke:#000000;stroke-width:0.264583"
       cx="59.706085"
       cy="51.868858"
       r="0.084170446" />
    <path
       style="fill:#ff2a2a;stroke-width:0.264583"
       id="path348"
       d="m 77.427536,57.079236 c 0.855491,3.288975 1.296903,6.66155 1.752034,10.023507 0.417623,3.71779 1.241512,7.374951 1.817066,11.070717 0.336436,3.498297 0.800031,6.963166 1.352978,10.433007 0.476245,3.134297 0.602755,6.304706 0.67541,9.469411 0.09015,2.442362 -0.0781,4.891972 0.100507,7.329722 0.228108,2.14439 0.283102,4.30149 0.711081,6.41828 0.539962,1.87006 0.753954,3.78281 0.868759,5.71822 0.09899,2.17553 0.09508,4.35401 0.100545,6.53128 -0.0026,1.72774 -0.0056,3.45547 -0.01365,5.18319 0,0 3.492265,-1.77881 3.492265,-1.77881 v 0 c -0.0035,-1.72549 5e-6,-3.45097 -0.0016,-5.17645 0.0013,-2.18446 -0.0027,-4.36982 -0.110543,-6.55223 -0.120494,-1.95374 -0.322609,-3.88428 -0.887806,-5.76815 -0.410356,-2.1011 -0.467564,-4.24512 -0.69147,-6.37138 -0.1459,-2.42859 -0.0336,-4.865427 -0.128617,-7.29667 -0.08065,-3.180484 -0.217538,-6.364893 -0.702434,-9.514181 C 85.201504,83.335266 84.739144,79.873003 84.383335,76.381879 83.81628,72.686573 82.995218,69.032945 82.567397,65.318488 82.107353,61.94707 81.651875,58.575066 80.91954,55.249846 c 0,0 -3.492047,1.82939 -3.492047,1.82939 z" />
    <path
       style="fill:#ff2a2a;stroke-width:0.264583"
       id="path350"
       d="m 87.458845,89.589828 c 1.099116,-2.572138 2.51356,-4.993735 3.888182,-7.425541 0.945055,-1.651101 1.969063,-3.267046 3.511635,-4.415317 1.817896,-0.939612 -0.985565,0.490199 -2.155431,1.413383 -0.256696,0.202568 0.620829,-0.20583 0.933733,-0.300786 1.251998,-0.379944 2.522035,-0.630798 3.803152,-0.891196 3.514404,-0.680342 7.094094,-0.869535 10.663234,-1.000911 3.56727,-0.105418 7.13652,-0.09328 10.70492,-0.08994 3.64281,0.156051 7.28137,0.396952 10.91596,0.685123 3.22807,0.114631 6.39776,0.616818 9.56653,1.199782 2.83937,0.467974 5.69211,0.795385 8.50918,1.388375 3.19873,0.67646 6.14391,2.102286 9.10849,3.425676 2.9851,1.13089 5.76009,2.649527 8.35922,4.490715 2.54125,1.765678 4.52045,4.020299 6.14194,6.630387 1.59874,2.422019 2.45535,5.16297 3.06767,7.970402 0.59235,3.4919 0.68615,7.05049 0.60056,10.58396 -0.1619,2.39984 -0.61283,4.83029 -1.61123,7.03615 -0.5118,1.13076 -0.96118,1.74744 -1.62647,2.78094 -0.90251,1.13242 -1.96978,2.13778 -3.19062,2.9232 -0.37181,0.2392 -1.52242,0.89597 -1.16061,0.64192 1.80921,-1.27041 3.26699,-1.79826 1.04436,-0.88405 -3.11318,1.05985 -6.32975,1.69535 -9.57106,2.20604 -4.35216,0.72831 -8.76294,0.57182 -13.15264,0.43971 -2.70575,-0.10639 -5.4436,-0.45954 -7.99061,-1.42661 -1.06247,-0.4034 -1.92902,-0.89701 -2.93527,-1.42364 -1.87656,-1.14512 -3.78037,-2.33408 -5.35637,-3.88658 -0.71101,-0.70041 -1.21302,-1.38689 -1.82538,-2.16557 -1.48461,-1.94473 -2.84034,-3.98711 -3.75332,-6.26305 -0.71749,-2.27051 -0.76398,-4.66101 -0.8184,-7.01947 -0.028,-2.32023 -0.004,-4.64075 0.0135,-6.96099 -0.0307,-1.886574 0.0107,-3.758964 0.20089,-5.635365 0.23092,-1.966802 0.34273,-3.944133 0.41146,-5.922354 0.0971,-1.488006 0.0766,-2.946855 -0.33174,-4.386305 -0.37692,-1.488789 -1.05664,-2.876944 -1.93098,-4.132112 -0.91507,-1.264676 -1.70921,-2.609588 -2.61772,-3.878333 -0.50564,-0.799944 -1.19456,-1.379358 -1.94771,-1.930392 0,0 -3.32577,2.112438 -3.32577,2.112438 v 0 c 0.73058,0.518046 1.39648,1.05075 1.881,1.822294 0.91372,1.262017 1.71662,2.598748 2.6232,3.8661 0.83955,1.227227 1.50964,2.568847 1.85532,4.023362 0.37541,1.403784 0.36871,2.827229 0.29288,4.272127 -0.0652,1.968862 -0.17989,3.935915 -0.41241,5.89303 -0.19482,1.887884 -0.21448,3.772537 -0.18554,5.67021 -0.004,2.32007 -0.0188,4.64025 0.0114,6.96022 0.0525,2.40598 0.12233,4.84014 0.8737,7.15044 0.94458,2.29852 2.31172,4.38375 3.82771,6.34734 0.62207,0.78299 1.16177,1.50772 1.87789,2.21496 1.5956,1.57584 3.52001,2.78048 5.41203,3.95839 1.01268,0.54469 1.89975,1.06423 2.97464,1.47891 2.58136,0.99585 5.36892,1.36297 8.11568,1.4705 4.38586,0.1249 8.7951,0.38798 13.14618,-0.34796 3.23718,-0.50081 6.45085,-1.0962 9.57548,-2.09942 2.66058,-1.0355 1.08777,-0.36654 5.64504,-2.91632 1.67118,-0.93501 3.13453,-2.17082 4.25892,-3.73028 0.66977,-1.08639 1.08067,-1.66538 1.58873,-2.85319 0.96111,-2.24704 1.38608,-4.70971 1.52452,-7.13425 0.0772,-3.56889 0.0149,-7.16469 -0.59312,-10.69124 -0.62383,-2.850148 -1.5277,-5.617211 -3.15247,-8.072846 -1.63672,-2.664907 -3.62539,-4.968272 -6.21158,-6.768629 -2.61211,-1.862704 -5.39597,-3.420473 -8.4074,-4.551135 -2.98407,-1.324875 -5.9404,-2.781012 -9.14661,-3.498252 -2.81578,-0.596479 -5.65886,-0.967676 -8.50252,-1.407007 -3.196,-0.565509 -6.38402,-1.113591 -9.63985,-1.19426 -3.63235,-0.297378 -7.26694,-0.554101 -10.90763,-0.729014 -3.57249,0.0011 -7.14562,-0.0027 -10.71732,0.08131 -3.57366,0.131139 -7.15811,0.302382 -10.68416,0.939941 -3.389285,0.655473 -6.451429,1.370613 -9.325516,3.582638 -1.453994,1.252278 -2.472095,2.863368 -3.398234,4.530638 -1.367282,2.462961 -2.786354,4.904954 -3.915849,7.489383 0,0 3.572666,-1.647683 3.572666,-1.647683 z" />
    <path
       style="fill:#000000;stroke-width:0.264583"
       id="path418"
       d="m 31.283415,128.27348 c 7.104033,0.79392 14.192713,1.69762 21.258239,2.77995 5.671735,0.87887 11.288789,2.07426 16.948223,3.02408 4.453964,0.71603 8.896911,1.49588 13.346163,2.23985 2.702338,0.33711 5.379363,0.7105 8.052951,1.23187 2.290686,0.41475 4.611404,0.60474 6.934851,0.69546 4.571408,-0.34254 9.150208,-0.467 13.733858,-0.55976 9.57687,-0.28042 19.16463,0.0872 28.73924,-0.20891 3.89994,-0.16835 7.74002,-0.67406 11.51257,-1.66184 2.14374,-0.48909 4.22836,-0.74897 6.33846,-1.39269 2.44426,-0.86518 5.0076,-1.25303 7.49749,-1.95249 1.72239,-0.50255 3.35232,-1.1977 4.90788,-2.08238 1.40577,-0.82445 2.81517,-1.64271 4.21729,-2.47334 0.22609,-0.13394 0.4429,-0.28304 0.66705,-0.4202 0.0905,-0.0554 0.32917,-0.0651 0.27679,-0.15738 -0.11474,-0.2022 -0.36916,-0.47333 -0.58317,-0.38253 -1.64225,0.69677 -3.52373,1.98096 -5.1326,3.05241 -0.42412,0.25949 -1.68518,1.05553 -1.27234,0.77846 0.59854,-0.40171 1.3721,-0.59568 1.82979,-1.15258 0.3475,-0.42283 -0.98306,0.48142 -1.47513,0.72103 -2.05999,1.00312 -4.11798,1.9563 -6.2352,2.83303 -5.60418,2.24088 -11.2319,4.42678 -16.87557,6.56726 -9.19381,3.05903 -18.5323,5.69429 -27.90496,8.14827 -5.65732,1.56788 -11.36943,2.97756 -16.97611,4.72506 -0.35434,0.11044 -6.689761,2.22211 -7.212959,2.39635 -3.146753,1.21056 -6.460508,1.99956 -9.493832,3.49778 -2.029142,1.00225 -5.601589,3.29661 -6.893663,4.08515 -2.669823,2.03758 -5.193543,4.33711 -7.354339,6.91721 -1.467245,1.75196 -2.582045,3.40081 -3.9027,5.26111 -1.469721,2.29502 -2.974337,4.57437 -4.300535,6.95754 -0.171378,0.30796 -1.371496,2.53334 -1.470686,3.05909 -0.07458,0.39529 0.06915,0.80154 0.10373,1.2023 0.347228,0.37818 0.611634,0.85411 1.041688,1.13453 1.001967,0.65336 3.602405,1.40765 4.657286,1.66465 3.007275,0.73266 6.093013,1.06915 9.160224,1.42755 4.79394,0.53348 9.617059,0.58295 14.434188,0.60171 5.720714,-7.9e-4 11.441348,-0.0311 17.162048,-0.0406 3.87223,-0.15667 7.76376,-0.1069 11.62765,-0.44667 0.72074,-0.0634 6.34195,-0.71314 6.90637,-0.77786 7.02216,-0.69206 13.98456,-1.70398 20.84584,-3.35567 4.46215,-1.08679 8.73081,-2.81613 12.8844,-4.75162 2.20024,-1.12673 4.46156,-2.10043 6.8272,-2.81652 0,0 3.08535,-2.38003 3.08535,-2.38003 v 0 c -2.40079,0.69271 -4.69836,1.65186 -6.91431,2.8094 -4.15507,1.98544 -8.44733,3.72753 -12.91561,4.87259 -6.85756,1.69803 -13.82158,2.75245 -20.85447,3.42125 -0.47729,0.0529 -6.18198,0.68991 -6.83383,0.74722 -3.86875,0.34007 -7.7625,0.33304 -11.64022,0.48426 -5.70468,0.007 -11.409407,0.0128 -17.11408,0.008 -4.820084,-0.0237 -9.646867,-0.0659 -14.44834,-0.54125 -3.908311,-0.43003 -7.874262,-0.83267 -11.611086,-2.13472 -0.66326,-0.23111 -1.345502,-0.44401 -1.945685,-0.80884 -0.363165,-0.22075 -0.592521,-0.60943 -0.888783,-0.91414 -0.01688,-0.34108 -0.124119,-0.68973 -0.05065,-1.02323 0.121068,-0.54955 1.236495,-2.64352 1.425448,-2.98752 1.298823,-2.36452 2.766626,-4.63249 4.237791,-6.89155 3.31025,-4.62194 6.711982,-8.78199 11.399181,-12.0884 -0.493374,0.23621 -1.883603,1.07798 -1.480124,0.70863 0.517739,-0.47395 1.209985,-0.71344 1.834785,-1.03329 3.046248,-1.55947 6.395701,-2.3644 9.569987,-3.60749 2.41173,-0.81009 4.808569,-1.66592 7.235081,-2.43059 5.626425,-1.77306 11.364245,-3.19176 17.040965,-4.78837 9.34696,-2.45056 18.66605,-5.05028 27.84991,-8.05789 5.61011,-2.10658 11.20721,-4.2511 16.77222,-6.47284 4.76492,-1.93108 9.40059,-4.21142 13.76167,-6.94299 2.89787,-1.84341 -1.01493,0.66777 -1.59239,0.85024 -0.21463,0.0678 0.0735,-0.47342 -0.0272,-0.67472 -0.0416,-0.0832 -0.15658,0.10051 -0.23522,0.15021 -0.21612,0.1366 -0.87363,0.53091 -0.64906,0.40869 0.83435,-0.4541 1.65295,-0.93658 2.47943,-1.40487 -1.55378,0.89063 -3.14229,1.66454 -4.87076,2.17272 -2.48427,0.72255 -5.04042,1.1054 -7.49344,1.93995 -0.67457,0.20797 -1.33633,0.46189 -2.02225,0.62864 -1.41968,0.34513 -2.92126,0.3204 -4.31921,0.78345 -3.86389,1.06722 -7.59291,1.60945 -11.60725,1.84033 -9.59863,0.4026 -19.21591,0.12548 -28.82002,0.27842 -4.49393,0.0271 -8.99366,-0.0161 -13.47312,0.39359 -2.315528,-0.0763 -4.631484,-0.2296 -6.916121,-0.63465 -2.690172,-0.51522 -5.369798,-0.94887 -8.09793,-1.21473 -4.468908,-0.70022 -8.924362,-1.48317 -13.389274,-2.20778 -5.683192,-0.93171 -11.328493,-2.08085 -17.016108,-2.98321 -7.029794,-1.04078 -14.088655,-1.84112 -21.114327,-2.91143 0,0 -3.178656,2.26779 -3.178656,2.26779 z" />
    <path
       sodipodi:type="spiral"
       style="fill:none;fill-rule:evenodd;stroke:#000000"
       id="path526"
       sodipodi:cx="333.67383"
       sodipodi:cy="481.80569"
       sodipodi:expansion="1"
       sodipodi:revolution="3"
       sodipodi:radius="403.4108"
       sodipodi:argument="-18.185217"
       sodipodi:t0="0"
       d="m 333.67383,481.80569 c 15.92472,12.47035 -8.95308,27.61864 -20.72654,26.46794 -31.90533,-3.11833 -41.74027,-42.30271 -32.20933,-67.92101 17.04862,-45.82511 74.32554,-57.91851 115.11548,-37.95072 59.86087,29.30353 74.51077,106.75911 43.69212,162.30994 -41.07641,74.04052 -139.33539,91.2755 -209.50441,49.43352 C 141.74059,561.4915 121.9125,442.16643 174.86623,357.44648 239.00029,254.83926 379.52643,232.41363 478.75958,296.53016 595.70242,372.08928 620.72865,533.89513 545.41729,647.61798 458.46735,778.91552 275.33187,806.54465 147.135,720.01709 1.4695742,621.69898 -28.764207,417.20019 68.994499,274.54033 178.66499,114.49753 404.55092,81.657717 561.66573,190.65843 c 174.4272,121.01146 209.87415,368.30201 89.62329,539.8657"
       transform="scale(0.26458333)" />
    <text
       xml:space="preserve"
       style="font-style:normal;font-weight:normal;font-size:10.5833px;line-height:1.25;font-family:sans-serif;white-space:pre;inline-size:26.5479;fill:#000000;fill-opacity:1;stroke:none;stroke-width:0.264583"
       x="95.925179"
       y="182.23586"
       id="text15174"
       transform="translate(48.422947,12.601272)"><tspan
         x="95.925179"
         y="182.23586"
         id="tspan35747">OEW</tspan></text>
    <text
       xml:space="preserve"
       transform="scale(0.26458333)"
       id="text25156"
       style="fill:black;fill-opacity:1;line-height:1.25;stroke:none;font-family:sans-serif;font-style:normal;font-weight:normal;font-size:40px;white-space:pre;shape-inside:url(#rect25158)" />
  </g>
</svg>
